<svg width="418" height="640" viewBox="0 0 418 640" fill="none" xmlns="http://www.w3.org/2000/svg">
<g clip-path="url(#clip0_1579_1688)">
<g opacity="0.9">
<g>
<path d="M238.087 1044.96L-28.2046 826.964C-39.4344 817.771 -37.5055 800.068 -24.5594 793.508L176.159 691.814C183.633 688.027 192.674 689.278 198.838 694.953L447.238 923.627C457.592 933.159 455.185 950.109 442.586 956.382L259.76 1047.4C252.685 1050.93 244.202 1049.97 238.087 1044.96Z" fill="url(#paint0_radial_1579_1688)"/>
</g>
<path d="M238.723 1044.19L-27.5685 826.187C-38.2368 817.453 -36.4044 800.635 -24.1055 794.404L176.613 692.71C183.713 689.112 192.302 690.301 198.158 695.692L446.558 924.366C456.394 933.422 454.108 949.524 442.139 955.483L259.312 1046.5C252.591 1049.85 244.533 1048.94 238.723 1044.19Z" stroke="url(#paint1_radial_1579_1688)" stroke-width="2.00837"/>
</g>
<g opacity="0.9" filter="url(#filter1_b_1579_1688)">
<path d="M243.007 957.612L3.56935 721.318C-7.65297 710.243 -2.32136 691.147 13.015 687.488L275.994 624.735C283.436 622.96 291.24 625.566 296.121 631.457L496.067 872.778C505.455 884.109 499.872 901.357 485.624 905.037L262.137 962.763C255.298 964.529 248.034 962.573 243.007 957.612Z" fill="url(#paint2_radial_1579_1688)"/>
<path d="M243.712 956.897L4.27472 720.603C-6.38649 710.082 -1.32147 691.941 13.2481 688.465L276.227 625.712C283.297 624.025 290.71 626.501 295.347 632.098L495.294 873.418C504.213 884.183 498.909 900.568 485.373 904.065L261.886 961.791C255.389 963.469 248.488 961.611 243.712 956.897Z" stroke="url(#paint3_radial_1579_1688)" stroke-width="2.00837"/>
</g>
<g opacity="0.9" filter="url(#filter2_b_1579_1688)">
<path d="M249.65 865.957L50.2801 624.606C39.8804 612.016 48.0542 592.937 64.3429 591.782L356.315 571.069C363.338 570.57 370.108 573.785 374.16 579.542L542.831 819.182C551.75 831.855 543.565 849.427 528.125 850.752L266.851 873.176C260.28 873.74 253.85 871.042 249.65 865.957Z" fill="url(#paint4_radial_1579_1688)"/>
<path d="M250.424 865.317L51.0543 623.966C41.1745 612.006 48.9397 593.881 64.414 592.783L356.386 572.07C363.057 571.597 369.489 574.651 373.339 580.12L542.01 819.76C550.483 831.799 542.707 848.492 528.039 849.751L266.765 872.176C260.522 872.712 254.414 870.148 250.424 865.317Z" stroke="url(#paint5_radial_1579_1688)" stroke-width="2.00837"/>
</g>
<g opacity="0.9" filter="url(#filter3_b_1579_1688)">
<path d="M259.065 773.08L98.9044 528.8C89.8603 515.006 100.381 496.794 116.849 497.738L407.601 514.391C413.977 514.757 419.799 518.132 423.283 523.483L579.353 763.175C588.261 776.856 577.989 794.886 561.678 794.199L275.016 782.134C268.551 781.862 262.613 778.491 259.065 773.08Z" fill="url(#paint6_radial_1579_1688)"/>
<path d="M259.905 772.529L99.7442 528.25C91.1523 515.145 101.147 497.844 116.791 498.74L407.544 515.394C413.6 515.741 419.131 518.947 422.442 524.031L578.511 763.723C586.974 776.72 577.216 793.848 561.72 793.196L275.058 781.13C268.916 780.872 263.275 777.67 259.905 772.529Z" stroke="url(#paint7_radial_1579_1688)" stroke-width="2.00837"/>
</g>
<g opacity="0.9" filter="url(#filter4_b_1579_1688)">
<path d="M266.723 673.986L146.313 438.129C139.005 423.816 150.633 407.144 166.59 409.056L477.061 446.267C483.831 447.078 489.727 451.27 492.719 457.397L613.48 704.766C620.603 719.358 608.364 735.933 592.322 733.418L281.5 684.695C275.143 683.699 269.649 679.717 266.723 673.986Z" fill="url(#paint8_radial_1579_1688)"/>
<path d="M267.617 673.529L147.207 437.673C140.265 424.075 151.312 408.237 166.47 410.054L476.941 447.264C483.373 448.035 488.974 452.016 491.816 457.838L612.577 705.207C619.345 719.069 607.717 734.815 592.477 732.426L281.656 683.703C275.617 682.757 270.397 678.974 267.617 673.529Z" stroke="url(#paint9_radial_1579_1688)" stroke-width="2.00837"/>
</g>
<g opacity="0.9" filter="url(#filter5_b_1579_1688)">
<path d="M275.17 568.765L209.611 347.286C205.21 332.418 218.603 318.382 233.661 322.082L556.736 401.456C563.675 403.161 569.186 408.426 571.208 415.28L639.736 647.673C644.193 662.789 630.3 676.915 615.112 672.709L289.068 582.42C282.39 580.57 277.137 575.409 275.17 568.765Z" fill="url(#paint10_radial_1579_1688)"/>
<path d="M276.133 568.48L210.574 347.001C206.393 332.876 219.116 319.542 233.421 323.057L556.496 402.432C563.089 404.051 568.324 409.052 570.244 415.564L638.773 647.957C643.007 662.317 629.809 675.737 615.38 671.741L289.336 581.452C282.992 579.695 278.001 574.792 276.133 568.48Z" stroke="url(#paint11_radial_1579_1688)" stroke-width="2.00837"/>
</g>
<g opacity="0.9" filter="url(#filter6_b_1579_1688)">
<path d="M287.398 466.941L275.812 255.589C275.023 241.186 289.224 230.671 302.77 235.63L628.822 354.989C636.194 357.688 641.318 364.434 641.939 372.26L659.158 589.254C660.322 603.927 645.828 614.827 632.055 609.636L300.369 484.635C292.922 481.828 287.834 474.888 287.398 466.941Z" fill="url(#paint12_radial_1579_1688)"/>
<path d="M288.401 466.886L276.815 255.534C276.065 241.851 289.556 231.862 302.425 236.573L628.477 355.932C635.48 358.496 640.348 364.905 640.938 372.339L658.157 589.333C659.263 603.273 645.494 613.628 632.409 608.696L300.723 483.696C293.648 481.029 288.815 474.436 288.401 466.886Z" stroke="url(#paint13_radial_1579_1688)" stroke-width="2.00837"/>
</g>
<g opacity="0.9" filter="url(#filter7_b_1579_1688)">
<path d="M308.062 366.328L345.919 175.716C348.434 163.052 362.073 156.017 373.85 161.31L695.491 305.852C703.962 309.659 708.718 318.777 706.992 327.903L670.763 519.465C668.349 532.23 654.633 539.379 642.786 534.047L319.518 388.554C310.991 384.716 306.24 375.5 308.062 366.328Z" fill="url(#paint14_radial_1579_1688)"/>
<path d="M309.047 366.523L346.903 175.912C349.293 163.881 362.25 157.198 373.438 162.226L695.079 306.768C703.127 310.384 707.645 319.047 706.006 327.716L669.776 519.279C667.483 531.406 654.453 538.197 643.198 533.132L319.93 387.639C311.829 383.992 307.316 375.237 309.047 366.523Z" stroke="url(#paint15_radial_1579_1688)" stroke-width="2.00837"/>
</g>
</g>
<defs>
<filter id="filter1_b_1579_1688" x="-22.0015" y="604.606" width="542.281" height="378.375" filterUnits="userSpaceOnUse" color-interpolation-filters="sRGB">
<feFlood flood-opacity="0" result="BackgroundImageFix"/>
<feGaussianBlur in="BackgroundImageFix" stdDeviation="9.79007"/>
<feComposite in2="SourceAlpha" operator="in" result="effect1_backgroundBlur_1579_1688"/>
<feBlend mode="normal" in="SourceGraphic" in2="effect1_backgroundBlur_1579_1688" result="shape"/>
</filter>
<filter id="filter2_b_1579_1688" x="26.0708" y="551.438" width="540.026" height="341.392" filterUnits="userSpaceOnUse" color-interpolation-filters="sRGB">
<feFlood flood-opacity="0" result="BackgroundImageFix"/>
<feGaussianBlur in="BackgroundImageFix" stdDeviation="9.79007"/>
<feComposite in2="SourceAlpha" operator="in" result="effect1_backgroundBlur_1579_1688"/>
<feBlend mode="normal" in="SourceGraphic" in2="effect1_backgroundBlur_1579_1688" result="shape"/>
</filter>
<filter id="filter3_b_1579_1688" x="75.9961" y="478.122" width="526.228" height="335.676" filterUnits="userSpaceOnUse" color-interpolation-filters="sRGB">
<feFlood flood-opacity="0" result="BackgroundImageFix"/>
<feGaussianBlur in="BackgroundImageFix" stdDeviation="9.79007"/>
<feComposite in2="SourceAlpha" operator="in" result="effect1_backgroundBlur_1579_1688"/>
<feBlend mode="normal" in="SourceGraphic" in2="effect1_backgroundBlur_1579_1688" result="shape"/>
</filter>
<filter id="filter4_b_1579_1688" x="124.499" y="389.326" width="510.636" height="363.927" filterUnits="userSpaceOnUse" color-interpolation-filters="sRGB">
<feFlood flood-opacity="0" result="BackgroundImageFix"/>
<feGaussianBlur in="BackgroundImageFix" stdDeviation="9.79007"/>
<feComposite in2="SourceAlpha" operator="in" result="effect1_backgroundBlur_1579_1688"/>
<feBlend mode="normal" in="SourceGraphic" in2="effect1_backgroundBlur_1579_1688" result="shape"/>
</filter>
<filter id="filter5_b_1579_1688" x="189.181" y="301.902" width="470.98" height="391.139" filterUnits="userSpaceOnUse" color-interpolation-filters="sRGB">
<feFlood flood-opacity="0" result="BackgroundImageFix"/>
<feGaussianBlur in="BackgroundImageFix" stdDeviation="9.79007"/>
<feComposite in2="SourceAlpha" operator="in" result="effect1_backgroundBlur_1579_1688"/>
<feBlend mode="normal" in="SourceGraphic" in2="effect1_backgroundBlur_1579_1688" result="shape"/>
</filter>
<filter id="filter6_b_1579_1688" x="256.201" y="214.806" width="422.603" height="415.723" filterUnits="userSpaceOnUse" color-interpolation-filters="sRGB">
<feFlood flood-opacity="0" result="BackgroundImageFix"/>
<feGaussianBlur in="BackgroundImageFix" stdDeviation="9.79007"/>
<feComposite in2="SourceAlpha" operator="in" result="effect1_backgroundBlur_1579_1688"/>
<feBlend mode="normal" in="SourceGraphic" in2="effect1_backgroundBlur_1579_1688" result="shape"/>
</filter>
<filter id="filter7_b_1579_1688" x="288.095" y="139.953" width="438.828" height="415.457" filterUnits="userSpaceOnUse" color-interpolation-filters="sRGB">
<feFlood flood-opacity="0" result="BackgroundImageFix"/>
<feGaussianBlur in="BackgroundImageFix" stdDeviation="9.79007"/>
<feComposite in2="SourceAlpha" operator="in" result="effect1_backgroundBlur_1579_1688"/>
<feBlend mode="normal" in="SourceGraphic" in2="effect1_backgroundBlur_1579_1688" result="shape"/>
</filter>
<radialGradient id="paint0_radial_1579_1688" cx="0" cy="0" r="1" gradientUnits="userSpaceOnUse" gradientTransform="translate(58.9593 1057.46) rotate(-54.766) scale(548.676 1000.7)">
<stop offset="0.30241" stop-color="#4CB7A3"/>
<stop offset="0.522187" stop-color="#3F59E4"/>
<stop offset="0.684258" stop-color="#4016A0"/>
<stop offset="0.926778" stop-color="#191919"/>
</radialGradient>
<radialGradient id="paint1_radial_1579_1688" cx="0" cy="0" r="1" gradientUnits="userSpaceOnUse" gradientTransform="translate(85.4919 1003.38) rotate(-12.555) scale(361.874 201.977)">
<stop stop-color="#191919"/>
<stop offset="0.203125" stop-color="#4016A0"/>
<stop offset="0.401042" stop-color="#3F59E4"/>
<stop offset="0.583333" stop-color="#4CB7A3"/>
<stop offset="0.760417" stop-color="#F6F1E7"/>
<stop offset="1" stop-color="#191919"/>
</radialGradient>
<radialGradient id="paint2_radial_1579_1688" cx="0" cy="0" r="1" gradientUnits="userSpaceOnUse" gradientTransform="translate(120.351 854.411) rotate(-74.1654) scale(542.227 1062.17)">
<stop offset="0.30241" stop-color="#4CB7A3"/>
<stop offset="0.723958" stop-color="#3F59E4"/>
<stop offset="0.926778" stop-color="#191919"/>
</radialGradient>
<radialGradient id="paint3_radial_1579_1688" cx="0" cy="0" r="1" gradientUnits="userSpaceOnUse" gradientTransform="translate(113.895 934.5) rotate(-12.6172) scale(395.597 220.842)">
<stop stop-color="#191919"/>
<stop offset="0.203125" stop-color="#4016A0"/>
<stop offset="0.401042" stop-color="#3F59E4"/>
<stop offset="0.583333" stop-color="#4CB7A3"/>
<stop offset="0.760417" stop-color="#F6F1E7"/>
<stop offset="1" stop-color="#191919"/>
</radialGradient>
<radialGradient id="paint4_radial_1579_1688" cx="0" cy="0" r="1" gradientUnits="userSpaceOnUse" gradientTransform="translate(126.606 923.98) rotate(-54.5814) scale(605.027 1140.79)">
<stop offset="0.30241" stop-color="#4CB7A3"/>
<stop offset="0.522187" stop-color="#3F59E4"/>
<stop offset="0.684258" stop-color="#4016A0"/>
<stop offset="0.926778" stop-color="#191919"/>
</radialGradient>
<radialGradient id="paint5_radial_1579_1688" cx="0" cy="0" r="1" gradientUnits="userSpaceOnUse" gradientTransform="translate(155.726 864.299) rotate(-11.5901) scale(406.471 226.044)">
<stop stop-color="#191919"/>
<stop offset="0.203125" stop-color="#4016A0"/>
<stop offset="0.401042" stop-color="#3F59E4"/>
<stop offset="0.583333" stop-color="#4CB7A3"/>
<stop offset="0.760417" stop-color="#F6F1E7"/>
<stop offset="1" stop-color="#191919"/>
</radialGradient>
<radialGradient id="paint6_radial_1579_1688" cx="0" cy="0" r="1" gradientUnits="userSpaceOnUse" gradientTransform="translate(125.346 828.389) rotate(-48.4071) scale(382.724 643.925)">
<stop stop-color="#3F59E4"/>
<stop offset="0.684258" stop-color="#4016A0"/>
<stop offset="0.926778" stop-color="#191919"/>
</radialGradient>
<radialGradient id="paint7_radial_1579_1688" cx="0" cy="0" r="1" gradientUnits="userSpaceOnUse" gradientTransform="translate(198.586 790.002) rotate(-10.021) scale(404.66 223.157)">
<stop stop-color="#191919"/>
<stop offset="0.203125" stop-color="#4016A0"/>
<stop offset="0.401042" stop-color="#3F59E4"/>
<stop offset="0.583333" stop-color="#C3AF8D"/>
<stop offset="0.760417" stop-color="#F6F1E7"/>
<stop offset="1" stop-color="#191919"/>
</radialGradient>
<radialGradient id="paint8_radial_1579_1688" cx="0" cy="0" r="1" gradientUnits="userSpaceOnUse" gradientTransform="translate(152.367 449.26) rotate(36.6315) scale(463.444 792.961)">
<stop stop-color="#3F59E4"/>
<stop offset="0.649772" stop-color="#4016A0"/>
<stop offset="0.926778" stop-color="#191919"/>
</radialGradient>
<radialGradient id="paint9_radial_1579_1688" cx="0" cy="0" r="1" gradientUnits="userSpaceOnUse" gradientTransform="translate(241.668 712.99) rotate(-10.543) scale(406.24 224.731)">
<stop stop-color="#191919"/>
<stop offset="0.203125" stop-color="#4016A0"/>
<stop offset="0.401042" stop-color="#3F59E4"/>
<stop offset="0.583333" stop-color="#4CB7A3"/>
<stop offset="0.760417" stop-color="#DAAE88"/>
<stop offset="1" stop-color="#191919"/>
</radialGradient>
<radialGradient id="paint10_radial_1579_1688" cx="0" cy="0" r="1" gradientUnits="userSpaceOnUse" gradientTransform="translate(218.774 360.945) rotate(58.3543) scale(659.157 1121.77)">
<stop stop-color="#F2AC84"/>
<stop offset="0.213542" stop-color="#3F59E4"/>
<stop offset="0.567708" stop-color="#4016A0"/>
<stop offset="0.926778" stop-color="#191919"/>
</radialGradient>
<radialGradient id="paint11_radial_1579_1688" cx="0" cy="0" r="1" gradientUnits="userSpaceOnUse" gradientTransform="translate(293.102 632.449) rotate(-10.3755) scale(386.814 213.778)">
<stop stop-color="#191919"/>
<stop offset="0.203125" stop-color="#4016A0"/>
<stop offset="0.401042" stop-color="#3F59E4"/>
<stop offset="0.583333" stop-color="#F2AC84"/>
<stop offset="0.760417" stop-color="#F6F1E7"/>
<stop offset="1" stop-color="#191919"/>
</radialGradient>
<radialGradient id="paint12_radial_1579_1688" cx="0" cy="0" r="1" gradientUnits="userSpaceOnUse" gradientTransform="translate(281.718 263.065) rotate(65.8209) scale(796.512 1378.8)">
<stop stop-color="#F2AC84"/>
<stop offset="0.333333" stop-color="#3F59E4"/>
<stop offset="0.684258" stop-color="#4016A0"/>
<stop offset="0.926778" stop-color="#191919"/>
</radialGradient>
<radialGradient id="paint13_radial_1579_1688" cx="0" cy="0" r="1" gradientUnits="userSpaceOnUse" gradientTransform="translate(342.419 553.303) rotate(-10.9062) scale(362.036 200.674)">
<stop stop-color="#191919"/>
<stop offset="0.203125" stop-color="#4016A0"/>
<stop offset="0.401042" stop-color="#3F59E4"/>
<stop offset="0.583333" stop-color="#F2AC84"/>
<stop offset="0.760417" stop-color="#F6F1E7"/>
<stop offset="1" stop-color="#191919"/>
</radialGradient>
<radialGradient id="paint14_radial_1579_1688" cx="0" cy="0" r="1" gradientUnits="userSpaceOnUse" gradientTransform="translate(328.455 244.253) rotate(56.2197) scale(499.36 912.558)">
<stop stop-color="#F2AC84"/>
<stop offset="0.642855" stop-color="#3F59E4"/>
<stop offset="0.798212" stop-color="#4016A0"/>
<stop offset="0.926778" stop-color="#191919"/>
</radialGradient>
<radialGradient id="paint15_radial_1579_1688" cx="0" cy="0" r="1" gradientUnits="userSpaceOnUse" gradientTransform="translate(392.663 471.71) rotate(-12.6182) scale(327.286 182.708)">
<stop stop-color="#191919"/>
<stop offset="0.203125" stop-color="#4016A0"/>
<stop offset="0.401042" stop-color="#3F59E4"/>
<stop offset="0.583333" stop-color="#F2AC84"/>
<stop offset="0.760417" stop-color="#F6F1E7"/>
<stop offset="1" stop-color="#191919"/>
</radialGradient>
<clipPath id="clip0_1579_1688">
<rect width="418" height="640" fill="white"/>
</clipPath>
</defs>
</svg>
